Coordinates
version=1
nRows=49
nColumns=12
inDegrees=yes

Units are S.I. units (second, meters, Newtons, ...)
Angles are in degrees

endheader
time	SC_y	SC_z	SC_x	AC_y	AC_z	AC_x	GH_y	GH_z	GH_yy	EL_x	PS_y
       0.0              -12.72        -0.9119          63.35          66.23          4.899         0.6385         -158.4          62.73          106.8           87.8          131.9
   0.01781              -12.72        -0.9097          63.35          66.22          4.897         0.6384         -158.4          62.72          106.7           87.8          131.9
   0.03562              -12.73        -0.9073          63.35          66.22          4.895         0.6382         -158.4          62.71          106.7           87.8          131.9
   0.05343              -12.73        -0.9048          63.36          66.21          4.893          0.638         -158.3          62.69          106.7          87.81          131.9
   0.07124              -12.73        -0.9021          63.36          66.21          4.891         0.6378         -158.3          62.68          106.6          87.81          131.9
   0.08905              -12.73        -0.8993          63.36           66.2          4.889         0.6376         -158.2          62.67          106.6          87.81          131.9
    0.1069              -12.74        -0.8962          63.36           66.2          4.887         0.6374         -158.2          62.66          106.5          87.81          131.9
    0.1247              -12.74         -0.893          63.36          66.19          4.884         0.6372         -158.1          62.64          106.5          87.81          131.9
    0.1425              -12.75        -0.8895          63.37          66.19          4.882         0.6369         -158.1          62.63          106.4          87.82          131.9
    0.1603              -12.75        -0.8857          63.37          66.18          4.879         0.6367         -158.0          62.61          106.4          87.82          131.9
    0.1781              -12.75        -0.8817          63.37          66.17          4.876         0.6364         -157.9          62.59          106.3          87.82          131.9
    0.1959              -12.76        -0.8773          63.38          66.17          4.873         0.6361         -157.8          62.57          106.2          87.82          131.9
    0.2137              -12.76        -0.8727          63.38          66.16          4.869         0.6357         -157.8          62.55          106.2          87.83          131.9
    0.2315              -12.77        -0.8676          63.38          66.15          4.866         0.6354         -157.7          62.53          106.1          87.83          131.9
    0.2493              -12.78        -0.8622          63.39          66.14          4.862          0.635         -157.6           62.5          106.0          87.83          131.9
    0.2671              -12.78        -0.8562          63.39          66.13          4.857         0.6346         -157.5          62.48          105.9          87.84          131.9
     0.285              -12.79        -0.8498           63.4          66.12          4.853         0.6341         -157.4          62.45          105.8          87.84          131.9
    0.3028               -12.8        -0.8428           63.4           66.1          4.847         0.6336         -157.2          62.42          105.7          87.84          131.9
    0.3206               -12.8        -0.8351          63.41          66.09          4.842          0.633         -157.1          62.38          105.6          87.85          131.9
    0.3384              -12.81        -0.8267          63.42          66.08          4.836         0.6324         -157.0          62.34          105.5          87.85          131.9
    0.3562              -12.82        -0.8175          63.43          66.06          4.829         0.6318         -156.8           62.3          105.3          87.86          131.9
     0.374              -12.83        -0.8074          63.43          66.04          4.821         0.6311         -156.6          62.26          105.2          87.87          131.9
    0.3918              -12.85        -0.7962          63.44          66.02          4.813         0.6303         -156.4          62.21          105.0          87.87          131.9
    0.4096              -12.86        -0.7838          63.45           66.0          4.804         0.6294         -156.2          62.15          104.8          87.88          131.9
    0.4274              -12.88          -0.77          63.46          65.98          4.794         0.6284         -156.0          62.09          104.6          87.89          131.9
    0.4452              -12.89        -0.7546          63.48          65.95          4.782         0.6273         -155.7          62.02          104.4           87.9          131.9
     0.463              -12.91        -0.7374          63.49          65.92          4.769         0.6261         -155.4          61.94          104.1          87.91          131.9
    0.4809              -12.93         -0.718           63.5          65.89          4.755         0.6247         -155.1          61.86          103.8          87.92          131.9
    0.4987              -12.96        -0.6961          63.52          65.85          4.739         0.6231         -154.7          61.76          103.5          87.94          131.9
    0.5165              -12.98        -0.6712          63.54          65.81          4.721         0.6214         -154.2          61.65          103.1          87.95          131.9
    0.5343              -13.01        -0.6428          63.56          65.76            4.7         0.6193         -153.7          61.52          102.6          87.97          131.9
    0.5521              -13.05        -0.6102          63.59           65.7          4.675          0.617         -153.2          61.37          102.2          87.99          131.9
    0.5699              -13.09        -0.5726          63.62          65.63          4.648         0.6143         -152.5          61.21          101.6          88.01          131.9
    0.5877              -13.14        -0.5289          63.66          65.56          4.615         0.6112         -151.7          61.01          100.9          88.04          131.9
    0.6055              -13.19        -0.4777           63.7          65.47          4.578         0.6076         -150.9          60.78          100.1          88.07          131.9
    0.6233              -13.26        -0.4174          63.75          65.36          4.533         0.6033         -149.8          60.51           99.2          88.11          131.9
    0.6411              -13.34        -0.3458           63.8          65.24           4.48         0.5982         -148.5          60.19          98.11          88.16          131.9
    0.6589              -13.43        -0.2599          63.87          65.09          4.417         0.5921         -147.0           59.8          96.79          88.21          131.9
    0.6768              -13.54         -0.156          63.95          64.91           4.34         0.5847         -145.2          59.34           95.2          88.27          132.0
    0.6946              -13.68       -0.02901          64.06          64.68          4.246         0.5756         -143.0          58.77          93.26          88.35          132.0
    0.7124              -13.85         0.1277          64.18          64.41           4.13         0.5645         -140.3          58.07          90.87          88.45          132.0
    0.7302              -14.06          0.323          64.34          64.07          3.986         0.5505         -136.9          57.19          87.88          88.57          132.0
     0.748              -14.33         0.5691          64.54          63.64          3.804          0.533         -132.6          56.09          84.12          88.73          132.0
    0.7658              -14.67          0.882          64.79          63.09          3.573         0.5107         -127.1          54.69          79.33          88.92          132.1
    0.7836              -15.11          1.282          65.11          62.39          3.277         0.4822         -120.1          52.89          73.21          89.17          132.1
    0.8014              -15.66          1.796          65.52           61.5          2.897         0.4456         -111.1          50.59          65.35           89.5          132.2
    0.8192              -16.38          2.453          66.04          60.35          2.412         0.3988         -99.62          47.65          55.32          89.91          132.3
     0.837              -17.27          3.278          66.71          58.91          1.801           0.34         -85.19          43.95           42.7          90.42          132.3
    0.8549              -18.37          4.284          67.51          57.15          1.058         0.2684          -67.6          39.44          27.32          91.05          132.5
